<?xml version="1.0" standalone="no"?>
<!DOCTYPE svg PUBLIC "-//W3C//DTD SVG 20010904//EN"
 "http://www.w3.org/TR/2001/REC-SVG-20010904/DTD/svg10.dtd">
<svg version="1.0" xmlns="http://www.w3.org/2000/svg"
 width="1280.000000pt" height="640.000000pt" viewBox="0 0 1280.000000 640.000000"
 preserveAspectRatio="xMidYMid meet">
<g transform="translate(0.000000,640.000000) scale(0.100000,-0.100000)"
fill="#000000" stroke="none">
<path d="M7695 5873 c-120 -27 -164 -85 -116 -152 28 -39 106 -78 182 -91 66
-12 92 -8 195 25 16 5 34 -8 91 -68 61 -64 71 -81 77 -122 11 -69 -1 -74 -73
-30 -34 20 -61 41 -61 46 0 6 -26 22 -57 37 -55 26 -66 27 -208 27 -169 0
-210 -11 -210 -55 0 -31 54 -63 134 -80 58 -12 247 -9 286 4 15 5 37 -5 86
-43 59 -44 67 -54 73 -92 4 -23 3 -46 -2 -51 -5 -5 -39 -2 -78 7 -89 21 -296
21 -429 -1 -55 -9 -127 -18 -160 -20 -33 -1 -128 -18 -212 -38 -170 -39 -223
-65 -223 -108 0 -15 5 -30 10 -33 6 -3 10 -15 10 -26 0 -10 -4 -19 -10 -19 -5
0 -10 -13 -10 -30 0 -46 35 -64 113 -57 96 8 313 63 335 85 30 30 163 47 352
46 185 0 216 -8 308 -71 30 -20 83 -70 118 -112 77 -89 184 -243 184 -264 0
-15 -58 -27 -137 -27 -40 0 -43 -2 -38 -23 6 -20 -2 -26 -67 -55 -40 -18 -78
-32 -84 -32 -6 0 -21 27 -33 60 -47 129 -184 227 -371 266 -111 23 -380 23
-533 1 -894 -134 -1870 -687 -2065 -1170 -21 -53 -24 -73 -20 -151 l4 -91
-502 -178 -502 -177 -123 -11 c-153 -13 -381 -3 -424 18 -16 9 -56 34 -88 56
-45 32 -59 48 -68 79 -7 28 -7 43 0 52 12 15 -5 92 -38 169 -81 187 -300 400
-534 518 -163 83 -395 154 -587 180 -140 19 -469 17 -609 -5 -143 -22 -312
-65 -438 -112 -114 -42 -313 -134 -313 -144 0 -10 34 -39 132 -112 l86 -66
109 53 c116 57 256 106 368 130 120 25 118 27 130 -71 8 -62 2 -67 -85 -83
-36 -7 -111 -28 -168 -47 -333 -110 -622 -341 -795 -636 -31 -53 -57 -99 -57
-102 0 -3 -13 -33 -29 -68 -68 -144 -112 -361 -111 -543 0 -66 3 -136 6 -155
2 -19 6 -55 9 -80 4 -55 44 -200 80 -295 14 -38 29 -79 32 -90 11 -34 102
-186 161 -269 77 -106 229 -257 343 -339 102 -73 329 -190 449 -230 239 -82
269 -88 426 -97 576 -33 6239 -48 7960 -22 l771 12 134 -27 c120 -24 157 -27
354 -27 176 -1 237 3 305 17 158 34 235 59 320 104 394 207 645 510 740 893
31 125 38 363 15 500 -101 608 -623 1086 -1267 1161 -123 14 -339 7 -453 -15
-102 -20 -238 -64 -336 -109 -81 -37 -289 -166 -289 -179 0 -4 -8 -8 -18 -8
-20 0 -82 59 -82 77 0 32 255 180 474 277 233 104 231 103 466 126 118 12 224
25 235 29 34 14 -105 26 -285 25 -339 -2 -649 -96 -923 -278 -76 -51 -89 -57
-104 -45 -33 28 -829 855 -846 879 -9 13 -17 27 -17 30 0 4 66 -10 148 -30 81
-21 180 -40 220 -44 l72 -7 0 128 c-1 236 -18 595 -28 605 -14 14 -114 -10
-313 -75 -208 -68 -328 -126 -374 -180 -19 -22 -35 -44 -35 -49 0 -19 -26 -5
-83 47 -43 38 -70 55 -89 55 -21 0 -34 10 -55 41 l-27 41 24 18 24 18 -86 128
c-47 71 -112 158 -144 193 l-58 63 -15 203 c-15 185 -18 206 -39 227 -12 14
-22 28 -22 32 0 4 -39 50 -87 102 -49 52 -93 107 -100 122 -17 40 -104 94
-166 103 -57 8 -111 9 -142 2z m358 -205 c17 -21 28 -40 25 -43 -6 -7 -88 64
-88 77 0 20 34 2 63 -34z m176 -360 c6 -51 14 -112 17 -135 3 -23 1 -44 -4
-47 -15 -9 -39 26 -46 68 -8 45 3 218 14 211 4 -2 12 -46 19 -97z m-144 -1096
c0 -23 5 -42 10 -42 6 0 56 18 113 41 57 23 106 39 109 35 4 -3 0 -18 -7 -32
-13 -24 -12 -27 23 -57 116 -101 327 -303 327 -314 0 -17 -23 -16 -66 2 -33
14 -37 13 -52 -4 -16 -18 -52 -20 -562 -36 l-545 -18 -350 -88 c-192 -49 -354
-84 -358 -80 -5 5 45 56 110 113 119 104 120 105 184 113 35 4 251 8 479 10
l415 2 17 29 c28 46 96 225 115 303 18 77 38 89 38 23z m-6087 -372 c204 -22
413 -81 601 -171 57 -27 114 -59 126 -72 12 -12 49 -37 82 -56 158 -87 374
-281 488 -439 85 -117 175 -262 175 -282 0 -18 -121 -67 -139 -55 -6 3 -32 47
-57 96 -179 347 -512 628 -891 753 -145 48 -257 67 -433 73 -91 3 -170 10
-176 14 -18 15 -28 130 -12 140 17 12 122 11 236 -1z m6823 -137 c119 -115
260 -342 295 -478 17 -61 19 -112 19 -390 1 -266 4 -331 18 -388 33 -130 96
-227 201 -304 63 -46 195 -116 278 -148 54 -20 54 -21 63 -130 12 -145 84
-362 163 -495 134 -225 305 -394 545 -540 48 -29 92 -59 98 -67 14 -16 95 -15
-901 -3 -1022 13 -5358 13 -6429 0 -470 -6 -856 -9 -858 -7 -2 3 52 26 119 52
372 145 600 321 797 619 74 112 154 315 186 471 9 44 20 84 24 88 12 12 142
-3 147 -17 2 -6 -27 -92 -66 -191 -113 -288 -132 -348 -137 -450 -5 -83 -3
-93 19 -125 35 -51 80 -77 156 -89 103 -17 2212 -124 3153 -161 309 -12 350
-8 514 50 120 42 371 161 524 247 l124 70 17 54 c9 30 41 92 72 139 57 89 138
255 138 284 0 9 -9 29 -20 44 l-20 27 320 920 c176 506 327 935 335 953 8 17
20 32 26 32 6 0 42 -30 80 -67z m-316 47 c7 -11 -112 -349 -129 -368 -10 -10
-91 21 -402 153 -214 92 -393 170 -398 175 -5 6 -7 12 -4 15 6 6 614 31 815
34 64 0 114 -3 118 -9z m911 -356 c187 -179 342 -331 346 -339 5 -8 -15 -40
-55 -88 -114 -137 -206 -312 -248 -473 -11 -43 -24 -130 -27 -193 -5 -82 -11
-116 -20 -119 -22 -7 -140 122 -166 181 -48 109 -50 134 -51 472 -1 346 -5
385 -60 515 -14 32 -25 62 -25 65 0 12 20 3 49 -21 l31 -26 65 23 c36 13 64
26 63 30 -2 4 -55 65 -118 134 -63 70 -120 135 -128 146 -40 58 39 -13 344
-307z m-3365 246 c95 -33 177 -64 182 -69 5 -5 -29 -27 -86 -54 -111 -52 -187
-102 -292 -192 -42 -36 -81 -65 -85 -65 -5 0 -48 43 -97 96 l-88 95 -47 -4
c-31 -3 -86 -23 -153 -55 -96 -47 -109 -51 -155 -45 -85 10 -78 28 40 106 127
83 316 163 525 223 44 12 81 23 82 23 1 1 79 -26 174 -59z m1440 -19 c96 -38
239 -97 319 -131 151 -64 460 -217 495 -244 20 -16 20 -16 1 -31 -14 -10 -16
-18 -9 -27 8 -9 -49 -178 -205 -611 l-215 -598 -98 -57 c-90 -52 -97 -59 -97
-87 1 -22 14 -41 50 -75 l50 -45 -37 -100 c-20 -55 -42 -106 -49 -113 -17 -17
-100 -18 -291 -3 -77 6 -212 15 -299 21 -87 5 -163 13 -169 19 -6 6 40 73 140
198 276 347 406 534 457 657 41 98 7 175 -119 266 -41 30 -75 62 -75 70 0 26
50 90 69 90 10 0 23 6 29 13 18 23 94 246 89 261 -21 54 -474 301 -574 313
l-53 6 -74 -67 c-41 -36 -79 -66 -84 -66 -6 0 -26 28 -43 61 -21 39 -56 82
-96 118 -35 31 -63 59 -63 64 0 4 15 7 33 7 17 0 41 7 52 16 18 13 21 13 36
-8 l17 -22 309 86 c169 47 313 87 319 87 6 1 90 -30 185 -68z m-2271 -305 c0
-3 -35 -29 -77 -58 -62 -43 -94 -58 -156 -72 -82 -19 -94 -17 -83 9 7 19 41
34 191 86 109 39 125 43 125 35z m-3137 -110 c86 -17 210 -58 282 -93 158 -79
321 -220 413 -356 73 -109 94 -153 79 -164 -14 -11 -124 -53 -138 -53 -5 0
-18 21 -30 48 -57 127 -170 265 -287 351 -97 70 -283 141 -369 141 -50 0 -62
9 -93 71 -17 32 -30 61 -30 64 0 10 99 5 173 -9z m-364 -10 c7 -8 13 -40 14
-71 l2 -57 -85 -37 c-110 -47 -180 -95 -259 -174 -145 -147 -222 -321 -237
-543 l-7 -93 -58 -46 c-32 -25 -87 -77 -121 -116 -62 -69 -92 -84 -102 -51
-18 57 -26 213 -16 305 27 240 123 442 289 608 127 125 275 212 451 263 100
29 114 31 129 12z m164 -70 c10 -30 -4 -49 -29 -39 -13 5 -25 53 -17 66 10 17
37 1 46 -27z m3175 -101 c36 -115 46 -137 67 -145 15 -6 41 -39 70 -89 46 -78
72 -99 107 -86 7 3 18 1 24 -3 23 -16 207 -323 198 -332 -5 -5 -88 -36 -184
-70 -160 -56 -180 -61 -238 -57 -35 3 -69 10 -75 16 -7 7 -15 7 -22 1 -13 -11
-484 22 -505 35 -13 8 -4 82 12 103 8 9 68 12 238 12 126 0 235 -3 244 -6 11
-4 17 -20 18 -48 l1 -41 6 45 6 45 78 3 c42 2 77 6 77 10 0 14 -107 287 -142
362 -19 41 -52 101 -72 133 -49 76 -88 94 -241 109 -113 11 -132 18 -97 36 51
27 224 86 272 92 124 17 110 28 158 -125z m4890 -144 c39 -36 40 -47 4 -86
-63 -67 -174 -274 -207 -385 -26 -89 -63 -285 -59 -311 9 -49 -9 -56 -73 -29
-86 35 -166 81 -156 91 5 5 44 -1 87 -13 62 -16 80 -18 86 -8 4 7 31 103 59
214 64 250 103 371 148 461 55 110 60 112 111 66z m1309 4 c224 -42 421 -150
571 -311 248 -264 325 -633 200 -954 -44 -115 -170 -300 -203 -300 -11 0 -124
159 -154 217 -17 33 -14 56 15 112 74 149 70 348 -12 519 -48 101 -176 231
-279 284 l-71 37 -32 80 c-32 77 -118 221 -141 235 -6 4 -11 16 -11 26 0 26
-27 50 -56 50 -13 0 -24 5 -24 10 0 15 107 12 197 -5z m-294 -44 c20 -27 43
-70 51 -95 22 -64 40 -186 29 -197 -5 -5 -45 -15 -89 -23 -44 -7 -109 -26
-145 -41 -136 -57 -105 -66 -240 73 -65 67 -119 126 -119 131 0 13 115 85 190
120 74 34 222 80 262 80 20 1 34 -10 61 -48z m-4907 -64 c124 -75 175 -92 272
-91 54 1 82 -3 82 -10 0 -6 -16 -35 -35 -63 -19 -29 -35 -56 -35 -60 0 -4 12
-16 26 -28 l25 -20 -28 -37 c-37 -49 -47 -52 -82 -22 l-30 25 -60 -31 c-33
-16 -66 -30 -73 -30 -7 0 -29 23 -48 51 l-35 51 23 18 c12 10 22 24 22 30 0 7
-36 72 -80 145 -44 73 -80 138 -80 145 0 8 10 5 29 -7 16 -10 64 -39 107 -66z
m-4056 33 c6 -11 15 -68 20 -126 8 -91 12 -108 32 -124 31 -25 18 -34 -29 -21
-21 6 -53 11 -71 11 -24 0 -35 6 -41 23 -13 33 -36 205 -32 245 1 8 19 12 56
12 44 0 56 -4 65 -20z m219 -52 c103 -50 212 -153 250 -236 32 -69 24 -78 -75
-74 -73 3 -76 2 -120 -34 -25 -21 -48 -33 -53 -28 -4 5 -26 29 -49 54 -37 42
-41 52 -52 130 -6 47 -18 110 -26 140 -8 30 -14 65 -14 78 0 21 3 23 28 18 15
-4 65 -25 111 -48z m-465 26 c5 -14 -2 -75 -20 -178 -7 -36 -6 -39 12 -31 41
17 59 11 62 -20 2 -25 -6 -39 -47 -78 -65 -63 -94 -124 -99 -208 -10 -165 78
-287 239 -333 39 -11 62 -24 73 -42 10 -14 49 -59 88 -100 52 -54 68 -78 60
-86 -6 -6 -49 -15 -95 -21 -222 -28 -476 93 -571 272 -41 77 -39 78 183 94
l35 2 -26 29 c-24 29 -27 29 -114 27 -49 -1 -98 -2 -108 -4 -12 -1 -25 7 -33
23 -17 32 -17 144 0 157 19 16 129 51 142 47 8 -3 10 -24 7 -60 -4 -46 -1 -60
22 -94 14 -22 31 -40 36 -40 12 0 13 -5 -5 54 -20 66 -19 122 5 197 10 35 17
65 14 68 -2 3 -51 -14 -107 -37 -56 -23 -106 -42 -111 -42 -16 0 5 75 44 156
49 103 129 186 220 231 75 37 86 39 94 17z m1805 -129 c33 -74 91 -253 91
-280 0 -7 -6 -15 -12 -17 -23 -8 -188 8 -199 19 -5 5 -16 46 -24 89 -7 43 -21
101 -30 127 -10 27 -14 52 -9 57 14 12 117 49 141 49 17 1 27 -10 42 -44z
m7639 -22 c22 -38 42 -77 44 -88 3 -18 -2 -20 -46 -17 -57 3 -76 15 -76 49 0
13 -7 40 -15 60 -23 53 -20 63 19 63 31 0 37 -5 74 -67z m-3973 13 c19 -14 19
-15 2 -50 -18 -40 -22 -66 -9 -66 5 0 27 -17 50 -38 62 -57 58 -75 -40 -218
-158 -230 -412 -564 -430 -564 -19 0 -5 37 42 103 l50 71 0 168 c0 92 -1 168
-3 168 -2 0 -25 -7 -51 -16 -26 -9 -50 -14 -53 -10 -3 3 0 19 7 37 13 31 16
32 75 15 17 -5 34 15 105 116 106 151 218 298 228 298 5 0 17 -6 27 -14z
m3199 -223 c61 -59 112 -113 114 -120 2 -7 -13 -39 -33 -72 -47 -76 -76 -167
-84 -261 l-6 -75 -65 3 c-84 3 -231 29 -244 42 -16 16 -8 153 14 249 33 136
139 341 177 341 9 0 66 -48 127 -107z m-7500 41 c17 -44 8 -54 -48 -54 -100 0
-112 18 -33 49 64 25 73 25 81 5z m1126 -119 c0 -8 -4 -15 -10 -15 -5 0 -10 7
-10 15 0 8 5 15 10 15 6 0 10 -7 10 -15z m6997 -1 c3 -9 1 -48 -5 -86 -10 -70
-32 -108 -61 -108 -21 0 -141 120 -141 141 0 12 17 24 53 37 96 36 144 41 154
16z m213 -20 c49 -20 60 -38 60 -101 0 -26 4 -52 8 -58 10 -14 70 -55 80 -55
5 0 7 23 4 50 -5 59 5 63 44 18 39 -47 83 -145 95 -216 11 -61 11 -63 -22
-114 -18 -28 -43 -72 -55 -97 -33 -73 -146 -160 -206 -161 -27 0 -32 -20 -9
-44 12 -12 21 -28 21 -35 0 -37 -186 -64 -293 -42 -31 7 -88 28 -125 46 -73
37 -162 119 -147 134 6 5 56 15 112 21 89 10 109 10 150 -4 67 -23 112 -20
174 12 40 20 60 38 78 70 28 51 31 124 8 169 -18 33 -81 93 -99 93 -7 0 -36
26 -65 58 l-53 57 43 20 c30 15 41 26 40 40 -3 28 19 148 29 161 10 13 62 4
128 -22z m-502 -224 c35 -32 61 -63 59 -67 -11 -18 -198 -96 -207 -87 -21 21
46 214 73 214 7 0 41 -27 75 -60z m-9595 23 c20 -72 20 -70 -38 -108 -31 -19
-60 -35 -65 -35 -5 0 -12 16 -16 35 -6 32 -3 38 42 79 53 49 70 55 77 29z
m1262 -43 c85 0 93 -7 71 -65 -21 -55 -76 -130 -96 -130 -17 0 -94 171 -86
192 4 10 14 13 29 9 12 -3 49 -6 82 -6z m-166 -80 c10 -30 30 -83 45 -117 16
-34 26 -68 23 -76 -3 -7 -31 -27 -62 -43 l-57 -29 -37 42 c-57 64 -114 150
-107 162 4 6 25 16 47 22 25 8 53 28 77 55 20 23 41 41 46 40 5 -1 16 -26 25
-56z m689 27 c15 -12 9 -51 -25 -162 -32 -100 -76 -189 -142 -282 -45 -64 -55
-73 -83 -73 -25 0 -44 12 -95 63 -34 35 -63 68 -63 74 0 6 16 30 34 52 71 85
108 159 171 339 4 11 25 12 97 7 51 -4 99 -12 106 -18z m-1717 -119 c139 -300
426 -488 744 -488 121 0 211 18 314 63 l78 33 85 -45 c147 -80 150 -89 44
-156 -169 -105 -348 -155 -561 -156 -398 -2 -748 199 -953 547 -23 38 -42 80
-42 91 0 30 71 89 153 129 98 47 108 45 138 -18z m9600 -24 c3 -27 16 -69 28
-93 13 -24 19 -47 14 -51 -4 -4 -56 -10 -114 -14 l-106 -6 -13 30 c-20 48 -10
57 59 52 l61 -4 0 30 c0 29 -2 31 -42 34 -64 5 -55 27 22 54 36 12 70 21 75
20 6 -2 13 -25 16 -52z m-553 -41 c83 -11 122 -20 122 -29 0 -7 -27 -33 -59
-59 -33 -25 -76 -66 -97 -90 -47 -57 -68 -58 -88 -2 -27 72 -46 141 -46 170 0
33 2 33 168 10z m177 -130 c15 -35 15 -39 -1 -48 -9 -5 -32 -20 -52 -33 -19
-13 -40 -21 -47 -18 -14 5 -25 50 -16 63 13 17 82 73 91 73 5 0 17 -17 25 -37z
m-3725 -91 c0 -5 -12 -19 -27 -33 l-26 -24 19 33 c17 30 34 42 34 24z m-4219
-32 c28 -15 24 -29 -13 -44 -52 -22 -75 -2 -41 36 19 21 27 22 54 8z m8048
-52 c190 -227 503 -313 770 -212 103 40 103 40 152 -3 25 -21 72 -58 106 -83
35 -25 63 -51 63 -58 0 -27 -155 -99 -288 -133 -102 -26 -288 -35 -389 -20
-272 42 -513 178 -671 379 -23 30 -42 60 -42 68 0 7 18 25 41 39 41 26 175 84
195 85 6 0 34 -28 63 -62z m837 51 c3 -6 -1 -18 -10 -27 -15 -15 -17 -15 -32
0 -9 9 -13 21 -10 27 9 14 43 14 52 0z m250 -151 c21 -34 57 -86 81 -115 24
-29 43 -55 43 -57 0 -13 -34 -36 -54 -36 -27 0 -146 82 -196 135 l-35 36 55
49 c30 27 58 50 62 50 4 0 23 -28 44 -62z m-7789 -163 c25 -19 50 -35 54 -35
15 0 10 -60 -4 -66 -20 -7 -126 35 -136 55 -7 13 -4 27 9 49 11 18 22 32 25
32 4 0 27 -16 52 -35z m458 -141 c190 -29 917 -16 1143 22 25 4 56 -6 133 -41
l100 -46 582 7 c550 7 733 1 582 -17 -33 -4 -233 -11 -445 -15 -592 -11 -1627
19 -2000 57 -58 5 -142 14 -188 19 -46 4 -86 11 -90 14 -12 13 23 27 53 21 17
-3 75 -13 130 -21z"/>
<path d="M3464 3594 c-64 -68 -40 -137 93 -264 109 -105 185 -141 339 -160 95
-12 143 -7 362 36 156 31 330 82 502 146 191 71 183 64 178 157 -2 43 -8 83
-12 90 -10 15 -67 12 -406 -26 -295 -34 -564 -37 -680 -9 -136 32 -295 65
-319 66 -15 0 -37 -14 -57 -36z"/>
</g>
</svg>
